<svg width="368" height="81" viewBox="0 0 368 81" fill="none" xmlns="http://www.w3.org/2000/svg"><script xmlns=""/>
<path d="M-0.073585 35.8779L-1 35.9463V36.8752V98.0132V99.0051L-0.00811612 99.0131L367.992 102L369 102.008V101V73.2548V53.3427C369 44.4468 361.455 37.4177 352.581 38.0471L323.849 40.0847C313.082 40.8483 302.461 37.2465 294.38 30.0911L276.28 14.0653C258.265 -1.88527 231.553 -3.07505 212.192 11.2108L191.557 26.4364C186.285 30.3259 180.287 33.1189 173.918 34.6502L134.479 44.1318C126.726 45.9956 118.636 45.9394 110.91 43.968L69.4857 33.3979C64.1455 32.0353 58.6198 31.5472 53.1234 31.9528L-0.073585 35.8779Z" fill="url(#paint0_linear_234_6804)" fill-opacity="0.2" stroke="#C63737" stroke-width="2"/>
<defs>
<linearGradient id="paint0_linear_234_6804" x1="184" y1="-2" x2="184" y2="101" gradientUnits="userSpaceOnUse">
<stop stop-color="#C63737"/>
<stop offset="1" stop-color="#C63737" stop-opacity="0"/>
</linearGradient>
</defs>
</svg>