<svg width="44" height="26" viewBox="0 0 44 26" fill="none" xmlns="http://www.w3.org/2000/svg"><script xmlns=""/>
<g clip-path="url(#clip0_248_12743)">
<path fill-rule="evenodd" clip-rule="evenodd" d="M21.8716 22.6239C19.608 24.4953 16.6717 25.625 13.4631 25.625C6.30377 25.625 0.5 20.0006 0.5 13.0625C0.5 6.12442 6.30377 0.5 13.4631 0.5C16.6717 0.5 19.608 1.62971 21.8716 3.50108C24.1353 1.62971 27.0716 0.5 30.2802 0.5C37.4395 0.5 43.2433 6.12442 43.2433 13.0625C43.2433 20.0006 37.4395 25.625 30.2802 25.625C27.0716 25.625 24.1353 24.4953 21.8716 22.6239Z" fill="#FF0007"/>
<path fill-rule="evenodd" clip-rule="evenodd" d="M21.8716 22.6241C24.6589 20.3199 26.4263 16.8912 26.4263 13.0625C26.4263 9.23376 24.6589 5.80507 21.8716 3.50087C24.1352 1.62963 27.0714 0.5 30.2799 0.5C37.4392 0.5 43.243 6.12442 43.243 13.0625C43.243 20.0006 37.4392 25.625 30.2799 25.625C27.0714 25.625 24.1352 24.4954 21.8716 22.6241Z" fill="#F9A000"/>
<path fill-rule="evenodd" clip-rule="evenodd" d="M21.8719 22.6239C24.659 20.3197 26.4263 16.8911 26.4263 13.0625C26.4263 9.23388 24.659 5.80529 21.8719 3.5011C19.0847 5.80529 17.3174 9.23388 17.3174 13.0625C17.3174 16.8911 19.0847 20.3197 21.8719 22.6239Z" fill="#FF5E00"/>
</g>
<defs>
<clipPath id="clip0_248_12743">
<rect width="42.7433" height="25.125" fill="white" transform="translate(0.5 0.5)"/>
</clipPath>
</defs>
</svg>